<svg viewBox="0 0 100 100" xmlns="http://www.w3.org/2000/svg"><path d="M72,69Q50,88,41.5,69Q33,50,41.5,27.5Q50,5,72,27.5Q94,50,72,69Z" stroke="none" stroke-width="0" fill="#d7dddf"/><path d="M55,74Q50,98,34,74Q18,50,34,45.5Q50,41,55,45.5Q60,50,55,74Z" stroke="none" stroke-width="0" fill="#b4bdc1"/><path d="M71,69Q50,88,26.5,69Q3,50,26.5,43Q50,36,71,43Q92,50,71,69Z" stroke="none" stroke-width="0" fill="#919da3"/><path d="M58.5,64Q50,78,27.5,64Q5,50,27.5,25.5Q50,1,58.5,25.5Q67,50,58.5,64Z" stroke="none" stroke-width="0" fill="#6e7d85"/><path d="M74.5,63Q50,76,44.5,63Q39,50,44.5,27.5Q50,5,74.5,27.5Q99,50,74.5,63Z" stroke="none" stroke-width="0" fill="#4b5d67"/><path d="M65,67Q50,84,36,67Q22,50,36,42Q50,34,65,42Q80,50,65,67Z" stroke="none" stroke-width="0" fill="#283d49"/></svg>